<svg xmlns="http://www.w3.org/2000/svg" xmlns:xlink="http://www.w3.org/1999/xlink" viewBox="0 0 1020 592" width="1020" height="592" preserveAspectRatio="xMidYMid slice" style="width: 100%; height: 100%; transform: translate3d(0px, 0px, 0px); content-visibility: visible;"><defs><clipPath id="__lottie_element_2"><rect width="1020" height="592" x="0" y="0"></rect></clipPath><linearGradient id="__lottie_element_6" spreadMethod="pad" gradientUnits="userSpaceOnUse" x1="774" y1="85.55590057373047" x2="1002" y2="174.7790069580078"><stop offset="0%" stop-color="rgb(10,10,10)" stop-opacity="0"></stop><stop offset="0%" stop-color="rgb(13,13,13)" stop-opacity="0"></stop><stop offset="100%" stop-color="rgb(10,10,10)" stop-opacity="0.000008750091183173936"></stop></linearGradient><linearGradient id="__lottie_element_10" spreadMethod="pad" gradientUnits="userSpaceOnUse" x1="85.0000991821289" y1="32.02180099487305" x2="85.93450164794922" y2="329.6090087890625"><stop offset="0%" stop-color="rgb(10,10,10)" stop-opacity="0"></stop><stop offset="0%" stop-color="rgb(13,13,13)" stop-opacity="0.000004381527560326504"></stop><stop offset="100%" stop-color="rgb(10,10,10)" stop-opacity="0"></stop></linearGradient><linearGradient id="__lottie_element_14" spreadMethod="pad" gradientUnits="userSpaceOnUse" x1="850" y1="508" x2="1020" y2="254.5"><stop offset="0%" stop-color="rgb(10,10,10)" stop-opacity="1"></stop><stop offset="13%" stop-color="rgb(13,13,13)" stop-opacity="1"></stop><stop offset="100%" stop-color="rgb(10,10,10)" stop-opacity="0"></stop></linearGradient><linearGradient id="__lottie_element_18" spreadMethod="pad" gradientUnits="userSpaceOnUse" x1="9" y1="423.4440002441406" x2="239.87399291992188" y2="342.40899658203125"><stop offset="0%" stop-color="rgb(10,10,10)" stop-opacity="0"></stop><stop offset="87%" stop-color="rgb(13,13,13)" stop-opacity="1"></stop><stop offset="100%" stop-color="rgb(10,10,10)" stop-opacity="1"></stop></linearGradient><linearGradient id="__lottie_element_22" spreadMethod="pad" gradientUnits="userSpaceOnUse" x1="-0.5" y1="550" x2="-0.5000240206718445" y2="0"><stop offset="0%" stop-color="rgb(251,251,251)"></stop><stop offset="100%" stop-color="rgb(239,239,239)"></stop></linearGradient><linearGradient id="__lottie_element_26" spreadMethod="pad" gradientUnits="userSpaceOnUse" x1="84.5" y1="550" x2="84.5" y2="0"><stop offset="5%" stop-color="rgb(251,251,251)"></stop><stop offset="25%" stop-color="rgb(239,239,239)"></stop></linearGradient><linearGradient id="__lottie_element_30" spreadMethod="pad" gradientUnits="userSpaceOnUse" x1="169.5" y1="550" x2="169.5" y2="0"><stop offset="15%" stop-color="rgb(251,251,251)"></stop><stop offset="35%" stop-color="rgb(239,239,239)"></stop></linearGradient><linearGradient id="__lottie_element_34" spreadMethod="pad" gradientUnits="userSpaceOnUse" x1="254.5" y1="550" x2="254.5" y2="0"><stop offset="0%" stop-color="rgb(251,251,251)"></stop><stop offset="100%" stop-color="rgb(239,239,239)"></stop></linearGradient><linearGradient id="__lottie_element_38" spreadMethod="pad" gradientUnits="userSpaceOnUse" x1="339.5" y1="550" x2="339.5" y2="0"><stop offset="50%" stop-color="rgb(251,251,251)"></stop><stop offset="75%" stop-color="rgb(239,239,239)"></stop></linearGradient><linearGradient id="__lottie_element_42" spreadMethod="pad" gradientUnits="userSpaceOnUse" x1="424.5" y1="550" x2="424.5" y2="0"><stop offset="75%" stop-color="rgb(251,251,251)"></stop><stop offset="95%" stop-color="rgb(239,239,239)"></stop></linearGradient><linearGradient id="__lottie_element_46" spreadMethod="pad" gradientUnits="userSpaceOnUse" x1="509.5" y1="550" x2="509.5" y2="0"><stop offset="0%" stop-color="rgb(251,251,251)"></stop><stop offset="100%" stop-color="rgb(239,239,239)"></stop></linearGradient><linearGradient id="__lottie_element_50" spreadMethod="pad" gradientUnits="userSpaceOnUse" x1="594.5" y1="550" x2="594.5" y2="0"><stop offset="75%" stop-color="rgb(251,251,251)"></stop><stop offset="95%" stop-color="rgb(239,239,239)"></stop></linearGradient><linearGradient id="__lottie_element_54" spreadMethod="pad" gradientUnits="userSpaceOnUse" x1="679.5" y1="550" x2="679.5" y2="0"><stop offset="55%" stop-color="rgb(251,251,251)"></stop><stop offset="75%" stop-color="rgb(239,239,239)"></stop></linearGradient><linearGradient id="__lottie_element_58" spreadMethod="pad" gradientUnits="userSpaceOnUse" x1="764.5" y1="550" x2="764.5" y2="0"><stop offset="0%" stop-color="rgb(251,251,251)"></stop><stop offset="100%" stop-color="rgb(239,239,239)"></stop></linearGradient><linearGradient id="__lottie_element_62" spreadMethod="pad" gradientUnits="userSpaceOnUse" x1="849.5" y1="550" x2="849.5" y2="0"><stop offset="15%" stop-color="rgb(251,251,251)"></stop><stop offset="35%" stop-color="rgb(239,239,239)"></stop></linearGradient><linearGradient id="__lottie_element_66" spreadMethod="pad" gradientUnits="userSpaceOnUse" x1="934.5" y1="550" x2="934.5" y2="0"><stop offset="5%" stop-color="rgb(251,251,251)"></stop><stop offset="25%" stop-color="rgb(239,239,239)"></stop></linearGradient><linearGradient id="__lottie_element_70" spreadMethod="pad" gradientUnits="userSpaceOnUse" x1="1019.5" y1="550" x2="1019.5" y2="0"><stop offset="0%" stop-color="rgb(251,251,251)"></stop><stop offset="100%" stop-color="rgb(239,239,239)"></stop></linearGradient><linearGradient id="__lottie_element_74" spreadMethod="pad" gradientUnits="userSpaceOnUse" x1="1020" y1="0.5" x2="0" y2="0.5"><stop offset="0%" stop-color="rgb(239,239,239)"></stop><stop offset="10%" stop-color="rgb(251,251,251)"></stop><stop offset="90%" stop-color="rgb(251,251,251)"></stop><stop offset="100%" stop-color="rgb(239,239,239)"></stop></linearGradient><linearGradient id="__lottie_element_78" spreadMethod="pad" gradientUnits="userSpaceOnUse" x1="1020" y1="0.5" x2="0" y2="0.5"><stop offset="0%" stop-color="rgb(239,239,239)"></stop><stop offset="23%" stop-color="rgb(251,251,251)"></stop><stop offset="83%" stop-color="rgb(251,251,251)"></stop><stop offset="100%" stop-color="rgb(239,239,239)"></stop></linearGradient><linearGradient id="__lottie_element_82" spreadMethod="pad" gradientUnits="userSpaceOnUse" x1="1020" y1="0.5" x2="0" y2="0.5"><stop offset="0%" stop-color="rgb(239,239,239)"></stop><stop offset="25%" stop-color="rgb(251,251,251)"></stop><stop offset="75%" stop-color="rgb(251,251,251)"></stop><stop offset="100%" stop-color="rgb(239,239,239)"></stop></linearGradient><linearGradient id="__lottie_element_86" spreadMethod="pad" gradientUnits="userSpaceOnUse" x1="1020" y1="0.5" x2="0" y2="0.5"><stop offset="0%" stop-color="rgb(239,239,239)"></stop><stop offset="35%" stop-color="rgb(251,251,251)"></stop><stop offset="65%" stop-color="rgb(251,251,251)"></stop><stop offset="100%" stop-color="rgb(239,239,239)"></stop></linearGradient><linearGradient id="__lottie_element_90" spreadMethod="pad" gradientUnits="userSpaceOnUse" x1="1020" y1="0.5" x2="0" y2="0.5"><stop offset="17%" stop-color="rgb(239,239,239)"></stop><stop offset="45%" stop-color="rgb(251,251,251)"></stop><stop offset="55%" stop-color="rgb(251,251,251)"></stop><stop offset="83%" stop-color="rgb(239,239,239)"></stop></linearGradient><linearGradient id="__lottie_element_94" spreadMethod="pad" gradientUnits="userSpaceOnUse" x1="1020" y1="0.5" x2="0" y2="0.5"><stop offset="25%" stop-color="rgb(239,239,239)"></stop><stop offset="50%" stop-color="rgb(251,251,251)"></stop><stop offset="75%" stop-color="rgb(239,239,239)"></stop></linearGradient></defs><g clip-path="url(#__lottie_element_2)"><g transform="matrix(-1,0,0,1,1020,85)" opacity="1" style="display: block;"><path stroke="url(#__lottie_element_94)" stroke-linecap="butt" stroke-linejoin="miter" fill-opacity="0" stroke-miterlimit="4" stroke-opacity="1" stroke-width="1" d=" M0,-0.5 C0,-0.5 1020,-0.5 1020,-0.5"></path></g><g transform="matrix(-1,0,0,1,1020,170)" opacity="1" style="display: block;"><path stroke="url(#__lottie_element_90)" stroke-linecap="butt" stroke-linejoin="miter" fill-opacity="0" stroke-miterlimit="4" stroke-opacity="1" stroke-width="1" d=" M0,-0.5 C0,-0.5 1020,-0.5 1020,-0.5"></path></g><g transform="matrix(-1,0,0,1,1020,255)" opacity="1" style="display: block;"><path stroke="url(#__lottie_element_86)" stroke-linecap="butt" stroke-linejoin="miter" fill-opacity="0" stroke-miterlimit="4" stroke-opacity="1" stroke-width="1" d=" M0,-0.5 C0,-0.5 1020,-0.5 1020,-0.5"></path></g><g transform="matrix(-1,0,0,1,1020,340)" opacity="1" style="display: block;"><path stroke="url(#__lottie_element_82)" stroke-linecap="butt" stroke-linejoin="miter" fill-opacity="0" stroke-miterlimit="4" stroke-opacity="1" stroke-width="1" d=" M0,-0.5 C0,-0.5 1020,-0.5 1020,-0.5"></path></g><g transform="matrix(-1,0,0,1,1020,425)" opacity="1" style="display: block;"><path stroke="url(#__lottie_element_78)" stroke-linecap="butt" stroke-linejoin="miter" fill-opacity="0" stroke-miterlimit="4" stroke-opacity="1" stroke-width="1" d=" M0,-0.5 C0,-0.5 1020,-0.5 1020,-0.5"></path></g><g transform="matrix(-1,0,0,1,1020,510)" opacity="1" style="display: block;"><path stroke="url(#__lottie_element_74)" stroke-linecap="butt" stroke-linejoin="miter" fill-opacity="0" stroke-miterlimit="4" stroke-opacity="1" stroke-width="1" d=" M0,-0.5 C0,-0.5 1020,-0.5 1020,-0.5"></path></g><g transform="matrix(1,0,0,1,0,0)" opacity="1" style="display: block;"><path stroke="url(#__lottie_element_70)" stroke-linecap="butt" stroke-linejoin="miter" fill-opacity="0" stroke-miterlimit="4" stroke-opacity="1" stroke-width="1" d=" M1020,550 C1020,550 1020,0.000007000000096013537 1020,0.000007000000096013537"></path></g><g transform="matrix(1,0,0,1,0,0)" opacity="1" style="display: block;"><path stroke="url(#__lottie_element_66)" stroke-linecap="butt" stroke-linejoin="miter" fill-opacity="0" stroke-miterlimit="4" stroke-opacity="1" stroke-width="1" d=" M935,550 C935,550 935,0.000007000000096013537 935,0.000007000000096013537"></path></g><g transform="matrix(1,0,0,1,0,0)" opacity="1" style="display: block;"><path stroke="url(#__lottie_element_62)" stroke-linecap="butt" stroke-linejoin="miter" fill-opacity="0" stroke-miterlimit="4" stroke-opacity="1" stroke-width="1" d=" M850,550 C850,550 850,0.000007000000096013537 850,0.000007000000096013537"></path></g><g transform="matrix(1,0,0,1,0,0)" opacity="1" style="display: block;"><path stroke="url(#__lottie_element_58)" stroke-linecap="butt" stroke-linejoin="miter" fill-opacity="0" stroke-miterlimit="4" stroke-opacity="1" stroke-width="1" d=" M765,550 C765,550 765,0.000007000000096013537 765,0.000007000000096013537"></path></g><g transform="matrix(1,0,0,1,0,0)" opacity="1" style="display: block;"><path stroke="url(#__lottie_element_54)" stroke-linecap="butt" stroke-linejoin="miter" fill-opacity="0" stroke-miterlimit="4" stroke-opacity="1" stroke-width="1" d=" M680,550 C680,550 680,0.000007000000096013537 680,0.000007000000096013537"></path></g><g transform="matrix(1,0,0,1,0,0)" opacity="1" style="display: block;"><path stroke="url(#__lottie_element_50)" stroke-linecap="butt" stroke-linejoin="miter" fill-opacity="0" stroke-miterlimit="4" stroke-opacity="1" stroke-width="1" d=" M595,550 C595,550 595,0.000007000000096013537 595,0.000007000000096013537"></path></g><g transform="matrix(1,0,0,1,0,0)" opacity="1" style="display: block;"><path stroke="url(#__lottie_element_46)" stroke-linecap="butt" stroke-linejoin="miter" fill-opacity="0" stroke-miterlimit="4" stroke-opacity="1" stroke-width="1" d=" M510,550 C510,550 510,0.000007000000096013537 510,0.000007000000096013537"></path></g><g transform="matrix(1,0,0,1,0,0)" opacity="1" style="display: block;"><path stroke="url(#__lottie_element_42)" stroke-linecap="butt" stroke-linejoin="miter" fill-opacity="0" stroke-miterlimit="4" stroke-opacity="1" stroke-width="1" d=" M425,550 C425,550 425,0.000007000000096013537 425,0.000007000000096013537"></path></g><g transform="matrix(1,0,0,1,0,0)" opacity="1" style="display: block;"><path stroke="url(#__lottie_element_38)" stroke-linecap="butt" stroke-linejoin="miter" fill-opacity="0" stroke-miterlimit="4" stroke-opacity="1" stroke-width="1" d=" M340,550 C340,550 340,0.000007000000096013537 340,0.000007000000096013537"></path></g><g transform="matrix(1,0,0,1,0,0)" opacity="1" style="display: block;"><path stroke="url(#__lottie_element_34)" stroke-linecap="butt" stroke-linejoin="miter" fill-opacity="0" stroke-miterlimit="4" stroke-opacity="1" stroke-width="1" d=" M255,550 C255,550 255,0.000007000000096013537 255,0.000007000000096013537"></path></g><g transform="matrix(1,0,0,1,0,0)" opacity="1" style="display: block;"><path stroke="url(#__lottie_element_30)" stroke-linecap="butt" stroke-linejoin="miter" fill-opacity="0" stroke-miterlimit="4" stroke-opacity="1" stroke-width="1" d=" M170,550 C170,550 170,0.000007000000096013537 170,0.000007000000096013537"></path></g><g transform="matrix(1,0,0,1,0,0)" opacity="1" style="display: block;"><path stroke="url(#__lottie_element_26)" stroke-linecap="butt" stroke-linejoin="miter" fill-opacity="0" stroke-miterlimit="4" stroke-opacity="1" stroke-width="1" d=" M85,550 C85,550 85,0.000007000000096013537 85,0.000007000000096013537"></path></g><g transform="matrix(1,0,0,1,0,0)" opacity="1" style="display: block;"><path stroke="url(#__lottie_element_22)" stroke-linecap="butt" stroke-linejoin="miter" fill-opacity="0" stroke-miterlimit="4" stroke-opacity="1" stroke-width="1" d=" M0,550 C0,550 -0.000024000000848900527,0.000007000000096013537 -0.000024000000848900527,0.000007000000096013537"></path></g><g transform="matrix(1,0,0,1,0,0)" opacity="1" style="display: block;"><path stroke="url(#__lottie_element_18)" stroke-linecap="butt" stroke-linejoin="miter" fill-opacity="0" stroke-miterlimit="4" stroke-opacity="1" stroke-dasharray=" 329" stroke-dashoffset="-329" stroke-width="1" d=" M9,424.5 C9,424.5 170,424.5 170,424.5 C170,424.5 170,339.5 170,339.5 C170,339.5 253,339.5 253,339.5"></path></g><g transform="matrix(1,0,0,1,0,0)" opacity="1" style="display: block;"><path stroke="url(#__lottie_element_14)" stroke-linecap="butt" stroke-linejoin="miter" fill-opacity="0" stroke-miterlimit="4" stroke-opacity="1" stroke-dasharray=" 423" stroke-dashoffset="-423" stroke-width="1" d=" M1020,254.5 C1020,254.5 850,254.5 850,254.5 C850,254.5 850,507.5 850,507.5"></path></g><g transform="matrix(1,0,0,1,0,0)" opacity="1" style="display: block;"><path stroke="url(#__lottie_element_10)" stroke-linecap="butt" stroke-linejoin="miter" fill-opacity="0" stroke-miterlimit="4" stroke-opacity="1" stroke-dasharray=" 283.5" stroke-dashoffset="0" stroke-width="1" d=" M85,28.5 C85,28.5 85,312 85,312"></path></g><g transform="matrix(1,0,0,1,0,0)" opacity="1" style="display: block;"><path stroke="url(#__lottie_element_6)" stroke-linecap="butt" stroke-linejoin="miter" fill-opacity="0" stroke-miterlimit="4" stroke-opacity="1" stroke-dasharray=" 329" stroke-dashoffset="658" stroke-width="1" d=" M774,84.5 C774,84.5 935,84.5 935,84.5 C935,84.5 935,169.5 935,169.5 C935,169.5 1018,169.5 1018,169.5"></path></g></g></svg>